<svg id="Logo" xmlns="http://www.w3.org/2000/svg" viewBox="0 0 714.05 449.6"><defs><style>.cls-1{fill:#111;}</style></defs><title>logo</title><path class="cls-1" d="M617.19,345.56C587,326.17,524.63,287.2,511.74,287.2c-17.15,0-121.94,69-121.94,69,0,29.86,2.08,52.65,6.11,71.78,19.49-12.66,80.77-52,106.55-62.44C515.33,360.11,565.89,342.5,617.19,345.56Z" transform="translate(-154.97 -287.2)"/><path class="cls-1" d="M617.19,446.57C587,427.2,524.64,388.22,511.74,388.22c-13.59,0-82.1,43.29-110,61.3a212.91,212.91,0,0,0,18.4,39.76,185.53,185.53,0,0,0,11.28,17.2c24.86-15.47,54.62-33.14,70.8-39.77C514.53,461.4,565.47,443.49,617.19,446.57Z" transform="translate(-154.97 -287.2)"/><path class="cls-1" d="M530,369.66c29,14.2,80.08,47,97.57,58.37,4-19.12,6.1-41.91,6.1-71.78,0,0-6-3.92-15.19-9.85-37.59,3.67-69.69,15-79.56,19.19C536.31,366.64,533.26,368.06,530,369.66Z" transform="translate(-154.97 -287.2)"/><path class="cls-1" d="M530,470.67c16.86,8.26,41.21,22.82,62.12,35.81a187.1,187.1,0,0,0,11.28-17.2,213,213,0,0,0,18.4-39.76l-3.28-2.11c-38,3.7-70.35,15.22-79.84,19.3C536.08,467.76,533.15,469.12,530,470.67Z" transform="translate(-154.97 -287.2)"/><path class="cls-1" d="M511.74,489.24c-8.49,0-38.49,16.94-66.61,34a230.82,230.82,0,0,0,66.61,50.21h0a230.81,230.81,0,0,0,66.6-50.21C550.24,506.18,520.23,489.24,511.74,489.24ZM525,546.84l-13.25-7-13.25,7L501,532.08l-10.72-10.46,14.82-2.15L511.74,506l6.63,13.42,14.82,2.15-10.72,10.46Z" transform="translate(-154.97 -287.2)"/><path class="cls-1" d="M211.75,675.1c-6.11,8.3-14.79,13-25,13-18.42,0-31.77-15.55-31.77-33s13.36-32.92,31.77-32.92c8.68,0,16.22,3.15,21.66,9.06a2.75,2.75,0,0,1,.86,2,2.84,2.84,0,0,1-.76,1.91,2.54,2.54,0,0,1-1.91.86,3,3,0,0,1-1.91-.76c-5.06-4.2-10.21-7.44-17.94-7.44-15.46,0-25.48,13.07-25.48,27.29s10,27.38,25.48,27.38c9.92,0,15.65-4.68,20.8-11a2.71,2.71,0,0,1,2.1-1,2.75,2.75,0,0,1,2.77,2.67A2.92,2.92,0,0,1,211.75,675.1Z" transform="translate(-154.97 -287.2)"/><path class="cls-1" d="M231.3,687.6a3.18,3.18,0,0,1-3.15-3.15V625.58a3.18,3.18,0,0,1,3.15-3.15,3.1,3.1,0,0,1,3.05,3.15v58.87A3.1,3.1,0,0,1,231.3,687.6Z" transform="translate(-154.97 -287.2)"/><path class="cls-1" d="M304.48,626.53l-26.14,59.35a2.94,2.94,0,0,1-2.67,1.72,2.83,2.83,0,0,1-2.77-1.72l-26.24-59.35a2.42,2.42,0,0,1-.19-1.15,2.89,2.89,0,0,1,2.86-3,2.94,2.94,0,0,1,2.67,1.72l23.57,54,23.66-54a2.94,2.94,0,0,1,2.67-1.72,2.83,2.83,0,0,1,2.86,3A2.54,2.54,0,0,1,304.48,626.53Z" transform="translate(-154.97 -287.2)"/><path class="cls-1" d="M320,687.6a3.18,3.18,0,0,1-3.15-3.15V625.58a3.18,3.18,0,0,1,3.15-3.15,3.1,3.1,0,0,1,3.05,3.15v58.87A3.1,3.1,0,0,1,320,687.6Z" transform="translate(-154.97 -287.2)"/><path class="cls-1" d="M383,686.83H346.27a3.18,3.18,0,0,1-3.15-3.15V625.58a3.15,3.15,0,1,1,6.3,0v55.53H383a2.73,2.73,0,0,1,2.86,2.77A2.89,2.89,0,0,1,383,686.83Z" transform="translate(-154.97 -287.2)"/><path class="cls-1" d="M446.26,688.07c-7.54,0-19.75-3.05-25.48-9.64a3.13,3.13,0,0,1-.86-2.1,2.68,2.68,0,0,1,.67-1.81,2.85,2.85,0,0,1,2-1,3.28,3.28,0,0,1,2,.76,32.92,32.92,0,0,0,21.75,8.11c8.4,0,17.37-3.05,17.37-11.74,0-7.06-8.3-9.83-21.85-14.79-8.68-3.15-18.22-7-18.22-17.65,0-11.26,10.4-16.12,22.8-16.12,7.92,0,16.7,2.86,21.85,6.77a3,3,0,0,1,1.24,2.39,3.17,3.17,0,0,1-.48,1.53,3,3,0,0,1-2.29,1.24,3.22,3.22,0,0,1-1.62-.48c-5.73-3.63-11.26-5.82-18.7-5.82-8.78,0-16.6,3.15-16.6,10.5s8.68,10.11,20.61,14.31c11.26,3.91,19.56,8.11,19.56,17.84C470,682.35,459.14,688.07,446.26,688.07Z" transform="translate(-154.97 -287.2)"/><path class="cls-1" d="M527,686.83H488.91a3.18,3.18,0,0,1-3.15-3.15V626.34a3.1,3.1,0,0,1,3.15-3.05h36.64a2.86,2.86,0,1,1,0,5.72H492v21.85h19a2.86,2.86,0,0,1,0,5.72H492v24.52h35a2.86,2.86,0,1,1,0,5.72Z" transform="translate(-154.97 -287.2)"/><path class="cls-1" d="M579.65,657.54s.38,1,12.4,25.76a3.37,3.37,0,0,1,.29,1.34,2.87,2.87,0,0,1-2.86,3,3.18,3.18,0,0,1-2.77-1.72c-13.36-27.38-13.36-27.48-13.36-27.48H550v26.14a3.18,3.18,0,0,1-3.24,3.05,3,3,0,0,1-3.05-3.05v-58.2a3,3,0,0,1,3.05-3.05H574c10.88,0,18.89,6.68,18.89,17.65C592.91,649.24,587.76,656,579.65,657.54Zm-5-28.62H550v24.14h24.71c7,0,11.93-5,11.93-12S581.65,628.92,574.68,628.92Z" transform="translate(-154.97 -287.2)"/><path class="cls-1" d="M660.17,626.53,634,685.88a2.94,2.94,0,0,1-2.67,1.72,2.83,2.83,0,0,1-2.77-1.72l-26.24-59.35a2.42,2.42,0,0,1-.19-1.15,2.89,2.89,0,0,1,2.86-3,2.94,2.94,0,0,1,2.67,1.72l23.57,54,23.66-54a2.93,2.93,0,0,1,2.67-1.72,2.83,2.83,0,0,1,2.86,3A2.54,2.54,0,0,1,660.17,626.53Z" transform="translate(-154.97 -287.2)"/><path class="cls-1" d="M675.72,687.6a3.18,3.18,0,0,1-3.15-3.15V625.58a3.18,3.18,0,0,1,3.15-3.15,3.1,3.1,0,0,1,3.05,3.15v58.87A3.1,3.1,0,0,1,675.72,687.6Z" transform="translate(-154.97 -287.2)"/><path class="cls-1" d="M750.34,675.1c-6.11,8.3-14.79,13-25,13-18.41,0-31.77-15.55-31.77-33s13.36-32.92,31.77-32.92c8.68,0,16.22,3.15,21.66,9.06a2.75,2.75,0,0,1,.86,2,2.84,2.84,0,0,1-.76,1.91,2.55,2.55,0,0,1-1.91.86,3,3,0,0,1-1.91-.76c-5.06-4.2-10.21-7.44-17.94-7.44-15.46,0-25.47,13.07-25.47,27.29s10,27.38,25.47,27.38c9.92,0,15.65-4.68,20.8-11a2.7,2.7,0,0,1,2.1-1,2.75,2.75,0,0,1,2.77,2.67A2.92,2.92,0,0,1,750.34,675.1Z" transform="translate(-154.97 -287.2)"/><path class="cls-1" d="M808,686.83H769.89a3.18,3.18,0,0,1-3.15-3.15V626.34a3.1,3.1,0,0,1,3.15-3.05h36.64a2.86,2.86,0,1,1,0,5.72H772.95v21.85h19a2.86,2.86,0,1,1,0,5.72h-19v24.52h35a2.86,2.86,0,1,1,0,5.72Z" transform="translate(-154.97 -287.2)"/><path class="cls-1" d="M845.27,688.07c-7.54,0-19.75-3.05-25.48-9.64a3.13,3.13,0,0,1-.86-2.1,2.68,2.68,0,0,1,.67-1.81,2.85,2.85,0,0,1,2-1,3.28,3.28,0,0,1,2,.76,32.92,32.92,0,0,0,21.75,8.11c8.4,0,17.37-3.05,17.37-11.74,0-7.06-8.3-9.83-21.85-14.79-8.68-3.15-18.22-7-18.22-17.65,0-11.26,10.4-16.12,22.8-16.12,7.92,0,16.7,2.86,21.85,6.77a3,3,0,0,1,1.24,2.39,3.17,3.17,0,0,1-.48,1.53,3,3,0,0,1-2.29,1.24,3.22,3.22,0,0,1-1.62-.48c-5.72-3.63-11.26-5.82-18.7-5.82-8.78,0-16.6,3.15-16.6,10.5s8.68,10.11,20.61,14.31c11.26,3.91,19.56,8.11,19.56,17.84C869,682.35,858.15,688.07,845.27,688.07Z" transform="translate(-154.97 -287.2)"/><path class="cls-1" d="M250.52,736.5a1,1,0,0,1-.46.12,1.12,1.12,0,0,1-1.07-.69l-3.21-7.06h-13l-3.17,7a1.21,1.21,0,0,1-1.07.73,1.2,1.2,0,0,1-1.18-1.18,1.13,1.13,0,0,1,.08-.5l10.76-23.66a1.18,1.18,0,0,1,2.18,0l10.76,23.66a1.13,1.13,0,0,1,.08.5A1.17,1.17,0,0,1,250.52,736.5Zm-11.22-22-5.53,12.21h11Z" transform="translate(-154.97 -287.2)"/><path class="cls-1" d="M278.87,731.61a12.12,12.12,0,0,1-10,5.19c-7.37,0-12.71-6.22-12.71-13.2a12.9,12.9,0,0,1,12.71-13.17,11.45,11.45,0,0,1,8.66,3.63,1.1,1.1,0,0,1,.34.8,1.14,1.14,0,0,1-.31.76,1,1,0,0,1-.76.34,1.21,1.21,0,0,1-.76-.3c-2-1.68-4.08-3-7.17-3-6.18,0-10.19,5.23-10.19,10.91s4,11,10.19,11c4,0,6.26-1.87,8.32-4.39a1.08,1.08,0,0,1,.84-.38,1.1,1.1,0,0,1,1.11,1.07A1.16,1.16,0,0,1,278.87,731.61Z" transform="translate(-154.97 -287.2)"/><path class="cls-1" d="M307.95,731.61a12.12,12.12,0,0,1-10,5.19c-7.37,0-12.71-6.22-12.71-13.2a12.9,12.9,0,0,1,12.71-13.17,11.45,11.45,0,0,1,8.66,3.63,1.1,1.1,0,0,1,.34.8,1.14,1.14,0,0,1-.31.76,1,1,0,0,1-.76.34,1.21,1.21,0,0,1-.76-.3c-2-1.68-4.08-3-7.17-3-6.18,0-10.19,5.23-10.19,10.91s4,11,10.19,11c4,0,6.26-1.87,8.32-4.39a1.08,1.08,0,0,1,.84-.38,1.1,1.1,0,0,1,1.11,1.07A1.16,1.16,0,0,1,307.95,731.61Z" transform="translate(-154.97 -287.2)"/><path class="cls-1" d="M327.06,736.8c-7.37,0-12.75-6.22-12.75-13.2a12.93,12.93,0,0,1,12.75-13.17c7.37,0,12.67,6.18,12.67,13.17S334.43,736.8,327.06,736.8Zm0-24.12c-6.14,0-10.27,5.19-10.27,10.91s4.12,11,10.27,11,10.19-5.23,10.19-11S333.21,712.68,327.06,712.68Z" transform="translate(-154.97 -287.2)"/><path class="cls-1" d="M356.9,736.8c-6.18,0-9.92-4.12-9.92-10.57V711.8a1.27,1.27,0,0,1,1.26-1.26,1.24,1.24,0,0,1,1.22,1.26v14.88c0,4.69,2.63,7.86,7.44,7.86s7.37-3.17,7.37-7.86V711.8a1.3,1.3,0,0,1,1.3-1.26,1.24,1.24,0,0,1,1.22,1.26v14.42C366.79,732.68,363.08,736.8,356.9,736.8Z" transform="translate(-154.97 -287.2)"/><path class="cls-1" d="M394.49,736.61a1,1,0,0,1-1-.46l-15-21.07v20.34a1.22,1.22,0,0,1-1.22,1.18,1.19,1.19,0,0,1-1.18-1.18V711.77a1.23,1.23,0,0,1,1.22-1.22,1.19,1.19,0,0,1,1,.5s12.21,17.48,15,21v-20.3a1.22,1.22,0,0,1,1.18-1.22,1.26,1.26,0,0,1,1.22,1.22v23.66A1.21,1.21,0,0,1,394.49,736.61Z" transform="translate(-154.97 -287.2)"/><path class="cls-1" d="M422,713.18h-8v22.17a1.26,1.26,0,1,1-2.52,0V713.18h-8a1.15,1.15,0,1,1,0-2.29H422a1.15,1.15,0,1,1,0,2.29Z" transform="translate(-154.97 -287.2)"/><path class="cls-1" d="M450.2,736.5a1,1,0,0,1-.46.12,1.12,1.12,0,0,1-1.07-.69l-3.21-7.06h-13l-3.17,7a1.21,1.21,0,0,1-1.07.73,1.2,1.2,0,0,1-1.18-1.18,1.13,1.13,0,0,1,.08-.5l10.76-23.66a1.18,1.18,0,0,1,2.18,0l10.76,23.66a1.13,1.13,0,0,1,.08.5A1.17,1.17,0,0,1,450.2,736.5Zm-11.22-22-5.53,12.21h11Z" transform="translate(-154.97 -287.2)"/><path class="cls-1" d="M468.59,736.3H459.2a1.27,1.27,0,0,1-1.26-1.26V712.11a1.24,1.24,0,0,1,1.26-1.22h8.47c4.39,0,7.37,2.63,7.37,6.3a6.07,6.07,0,0,1-3.47,5.46,6.83,6.83,0,0,1,5.11,6.45C476.68,732.95,473.86,736.3,468.59,736.3ZM468,713.14h-7.56v8.66H468a4.33,4.33,0,1,0,0-8.66Zm1.37,10.91h-8.93v10h8.93c3,0,4.81-2,4.81-5A4.78,4.78,0,0,0,469.39,724.05Z" transform="translate(-154.97 -287.2)"/><path class="cls-1" d="M485.19,736.61a1.27,1.27,0,0,1-1.26-1.26V711.8a1.27,1.27,0,0,1,1.26-1.26,1.24,1.24,0,0,1,1.22,1.26v23.55A1.24,1.24,0,0,1,485.19,736.61Z" transform="translate(-154.97 -287.2)"/><path class="cls-1" d="M512.28,736.3H497.59a1.27,1.27,0,0,1-1.26-1.26V711.8a1.26,1.26,0,1,1,2.52,0V734h13.43a1.09,1.09,0,0,1,1.14,1.11A1.16,1.16,0,0,1,512.28,736.3Z" transform="translate(-154.97 -287.2)"/><path class="cls-1" d="M521.82,736.61a1.27,1.27,0,0,1-1.26-1.26V711.8a1.27,1.27,0,0,1,1.26-1.26A1.24,1.24,0,0,1,523,711.8v23.55A1.24,1.24,0,0,1,521.82,736.61Z" transform="translate(-154.97 -287.2)"/><path class="cls-1" d="M549.41,713.18h-8v22.17a1.26,1.26,0,1,1-2.52,0V713.18h-8a1.15,1.15,0,1,1,0-2.29h18.55a1.15,1.15,0,1,1,0,2.29Z" transform="translate(-154.97 -287.2)"/><path class="cls-1" d="M574.29,712.38l-8.74,11.83v11.14a1.3,1.3,0,0,1-1.3,1.26,1.24,1.24,0,0,1-1.22-1.26V724.21l-8.78-11.83a1.14,1.14,0,0,1-.23-.69,1.09,1.09,0,0,1,.46-.92,1.14,1.14,0,0,1,1.6.23l8.17,11.14L572.46,711a1.14,1.14,0,0,1,.92-.46,1.2,1.2,0,0,1,.72.27,1.14,1.14,0,0,1,.19,1.56Z" transform="translate(-154.97 -287.2)"/><path class="cls-1" d="M595,736.61a1.27,1.27,0,0,1-1.26-1.26V711.8a1.27,1.27,0,0,1,1.26-1.26,1.24,1.24,0,0,1,1.22,1.26v23.55A1.24,1.24,0,0,1,595,736.61Z" transform="translate(-154.97 -287.2)"/><path class="cls-1" d="M624.55,736.61a1,1,0,0,1-1-.46l-15-21.07v20.34a1.22,1.22,0,0,1-1.22,1.18,1.19,1.19,0,0,1-1.18-1.18V711.77a1.23,1.23,0,0,1,1.22-1.22,1.19,1.19,0,0,1,1,.5s12.21,17.48,15,21v-20.3a1.22,1.22,0,0,1,1.18-1.22,1.26,1.26,0,0,1,1.22,1.22v23.66A1.21,1.21,0,0,1,624.55,736.61Z" transform="translate(-154.97 -287.2)"/><path class="cls-1" d="M668.54,736.5a1,1,0,0,1-.46.12,1.11,1.11,0,0,1-1.07-.69l-3.21-7.06h-13l-3.17,7a1.21,1.21,0,0,1-1.07.73,1.16,1.16,0,0,1-.5-.12,1.17,1.17,0,0,1-.69-1.07,1.12,1.12,0,0,1,.08-.5l10.76-23.66a1.18,1.18,0,0,1,2.17,0l10.76,23.66a1.13,1.13,0,0,1,.08.5A1.17,1.17,0,0,1,668.54,736.5Zm-11.22-22-5.53,12.21h11Z" transform="translate(-154.97 -287.2)"/><path class="cls-1" d="M696.9,731.61a12.12,12.12,0,0,1-10,5.19c-7.37,0-12.71-6.22-12.71-13.2a12.9,12.9,0,0,1,12.71-13.17,11.46,11.46,0,0,1,8.66,3.63,1.1,1.1,0,0,1,.34.8,1.14,1.14,0,0,1-.3.76,1,1,0,0,1-.76.34,1.21,1.21,0,0,1-.76-.3c-2-1.68-4.08-3-7.17-3-6.18,0-10.19,5.23-10.19,10.91s4,11,10.19,11c4,0,6.26-1.87,8.32-4.39a1.08,1.08,0,0,1,.84-.38,1.1,1.1,0,0,1,1.11,1.07A1.16,1.16,0,0,1,696.9,731.61Z" transform="translate(-154.97 -287.2)"/><path class="cls-1" d="M721.81,713.18h-8v22.17a1.26,1.26,0,1,1-2.52,0V713.18h-8a1.15,1.15,0,0,1,0-2.29h18.55a1.15,1.15,0,1,1,0,2.29Z" transform="translate(-154.97 -287.2)"/><path class="cls-1" d="M730.93,736.61a1.27,1.27,0,0,1-1.26-1.26V711.8a1.27,1.27,0,0,1,1.26-1.26,1.24,1.24,0,0,1,1.22,1.26v23.55A1.24,1.24,0,0,1,730.93,736.61Z" transform="translate(-154.97 -287.2)"/><path class="cls-1" d="M752.72,736.8c-7.37,0-12.75-6.22-12.75-13.2a12.93,12.93,0,0,1,12.75-13.17c7.37,0,12.67,6.18,12.67,13.17S760.09,736.8,752.72,736.8Zm0-24.12c-6.14,0-10.27,5.19-10.27,10.91s4.12,11,10.27,11,10.19-5.23,10.19-11S758.87,712.68,752.72,712.68Z" transform="translate(-154.97 -287.2)"/><path class="cls-1" d="M791.57,736.61a1,1,0,0,1-1-.46l-15-21.07v20.34a1.22,1.22,0,0,1-1.22,1.18,1.19,1.19,0,0,1-1.18-1.18V711.77a1.23,1.23,0,0,1,1.22-1.22,1.19,1.19,0,0,1,1,.5s12.21,17.48,15,21v-20.3a1.22,1.22,0,0,1,1.18-1.22,1.26,1.26,0,0,1,1.22,1.22v23.66A1.21,1.21,0,0,1,791.57,736.61Z" transform="translate(-154.97 -287.2)"/></svg>