<svg id="Logo" xmlns="http://www.w3.org/2000/svg" viewBox="0 0 897.36 200.47"><defs><style>.cls-1{fill:#a31e23;}.cls-2{fill:#631316;}.cls-3{fill:#1e72a1;}.cls-4{fill:#191919;}.cls-5{fill:#666;}</style></defs><title>logo</title><path class="cls-1" d="M222.53,102.14c-21.16-13.58-64.81-40.87-73.83-40.87-12,0-85.38,48.35-85.38,48.35,0,20.9,1.46,36.87,4.28,50.25,13.64-8.87,56.56-36.4,74.61-43.72C151.21,112.32,186.61,100,222.53,102.14Z" transform="translate(-63.32 -61.27)"/><path class="cls-1" d="M222.53,172.87C201.4,159.3,157.73,132,148.7,132c-9.51,0-57.49,30.32-77,42.93a148.93,148.93,0,0,0,12.88,27.83,132.25,132.25,0,0,0,7.9,12.05C109.84,204,130.69,191.61,142,187,150.66,183.25,186.32,170.71,222.53,172.87Z" transform="translate(-63.32 -61.27)"/><path class="cls-2" d="M161.49,119c20.27,9.95,56.07,32.92,68.32,40.87,2.82-13.39,4.27-29.35,4.27-50.25,0,0-4.17-2.74-10.63-6.9-26.32,2.56-48.8,10.49-55.71,13.44C165.91,116.9,163.76,117.89,161.49,119Z" transform="translate(-63.32 -61.27)"/><path class="cls-2" d="M161.47,189.73c11.8,5.79,28.85,16,43.49,25.09a131.92,131.92,0,0,0,7.9-12.05,149.31,149.31,0,0,0,12.88-27.83l-2.3-1.48C196.86,176,174.19,184.11,167.54,187,165.74,187.71,163.69,188.65,161.47,189.73Z" transform="translate(-63.32 -61.27)"/><path class="cls-3" d="M148.7,202.74c-5.95,0-27,11.86-46.64,23.83a161.7,161.7,0,0,0,46.64,35.16h0a161.65,161.65,0,0,0,46.64-35.16C175.66,214.6,154.65,202.74,148.7,202.74ZM158,243.07l-9.28-4.88-9.28,4.88,1.77-10.33-7.5-7.33,10.37-1.51,4.64-9.4,4.64,9.4,10.38,1.51-7.51,7.33Z" transform="translate(-63.32 -61.27)"/><path class="cls-4" d="M339.56,162.77c-5.77,7.84-14,12.26-23.62,12.26-17.4,0-30-14.69-30-31.19s12.62-31.1,30-31.1c8.2,0,15.33,3,20.47,8.56a2.59,2.59,0,0,1,.81,1.89,2.68,2.68,0,0,1-.72,1.8,2.4,2.4,0,0,1-1.8.81,2.86,2.86,0,0,1-1.8-.72c-4.78-4-9.65-7-16.95-7-14.6,0-24.07,12.35-24.07,25.78s9.47,25.87,24.07,25.87c9.38,0,14.79-4.42,19.65-10.37a2.56,2.56,0,0,1,2-.9,2.6,2.6,0,0,1,2.61,2.52A2.75,2.75,0,0,1,339.56,162.77Z" transform="translate(-63.32 -61.27)"/><path class="cls-4" d="M358,174.59a3,3,0,0,1-3-3V116a3,3,0,0,1,3-3,2.92,2.92,0,0,1,2.88,3v55.63A2.92,2.92,0,0,1,358,174.59Z" transform="translate(-63.32 -61.27)"/><path class="cls-4" d="M427.19,116.89,402.49,173a2.77,2.77,0,0,1-2.52,1.62,2.67,2.67,0,0,1-2.61-1.62l-24.79-56.08a2.28,2.28,0,0,1-.18-1.08,2.73,2.73,0,0,1,2.7-2.79,2.77,2.77,0,0,1,2.52,1.62l22.27,51,22.36-51a2.77,2.77,0,0,1,2.52-1.62,2.67,2.67,0,0,1,2.7,2.79A2.4,2.4,0,0,1,427.19,116.89Z" transform="translate(-63.32 -61.27)"/><path class="cls-4" d="M441.89,174.59a3,3,0,0,1-3-3V116a3,3,0,0,1,3-3,2.92,2.92,0,0,1,2.88,3v55.63A2.92,2.92,0,0,1,441.89,174.59Z" transform="translate(-63.32 -61.27)"/><path class="cls-4" d="M501.4,173.86H466.69a3,3,0,0,1-3-3V116a3,3,0,0,1,6,0v52.47H501.4a2.58,2.58,0,0,1,2.7,2.61A2.73,2.73,0,0,1,501.4,173.86Z" transform="translate(-63.32 -61.27)"/><path class="cls-4" d="M561.17,175c-7.12,0-18.66-2.88-24.07-9.11a3,3,0,0,1-.81-2,2.53,2.53,0,0,1,.63-1.71,2.7,2.7,0,0,1,1.89-.9,3.1,3.1,0,0,1,1.89.72,31.1,31.1,0,0,0,20.56,7.66c7.93,0,16.41-2.88,16.41-11.09,0-6.67-7.84-9.29-20.65-14-8.2-3-17.22-6.58-17.22-16.68,0-10.64,9.83-15.24,21.55-15.24,7.48,0,15.78,2.7,20.65,6.4a2.82,2.82,0,0,1,1.17,2.25,3,3,0,0,1-.45,1.44,2.78,2.78,0,0,1-2.16,1.17,3,3,0,0,1-1.53-.45c-5.41-3.43-10.64-5.5-17.67-5.5-8.29,0-15.69,3-15.69,9.92s8.2,9.56,19.47,13.52c10.64,3.7,18.48,7.66,18.48,16.86C583.62,169.63,573.34,175,561.17,175Z" transform="translate(-63.32 -61.27)"/><path class="cls-4" d="M637.45,173.86h-36a3,3,0,0,1-3-3V116.71a2.93,2.93,0,0,1,3-2.88H636.1a2.71,2.71,0,1,1,0,5.41H604.36v20.65H622.3a2.7,2.7,0,0,1,0,5.41H604.36v23.17h33.09a2.7,2.7,0,1,1,0,5.41Z" transform="translate(-63.32 -61.27)"/><path class="cls-4" d="M687.22,146.19s.36.9,11.72,24.34a3.18,3.18,0,0,1,.27,1.26,2.72,2.72,0,0,1-2.7,2.79,3,3,0,0,1-2.61-1.62c-12.62-25.87-12.62-26-12.62-26H659.18v24.7a3,3,0,0,1-3.07,2.88,2.85,2.85,0,0,1-2.88-2.88v-55a2.85,2.85,0,0,1,2.88-2.88H681.9c10.28,0,17.85,6.31,17.85,16.68C699.75,138.34,694.88,144.74,687.22,146.19Zm-4.69-27H659.18v22.81h23.35c6.58,0,11.27-4.69,11.27-11.36S689.11,119.14,682.53,119.14Z" transform="translate(-63.32 -61.27)"/><path class="cls-4" d="M763.32,116.89,738.61,173a2.77,2.77,0,0,1-2.52,1.62,2.67,2.67,0,0,1-2.61-1.62l-24.79-56.08a2.28,2.28,0,0,1-.18-1.08,2.73,2.73,0,0,1,2.7-2.79,2.77,2.77,0,0,1,2.52,1.62l22.27,51,22.36-51a2.77,2.77,0,0,1,2.52-1.62,2.67,2.67,0,0,1,2.7,2.79A2.4,2.4,0,0,1,763.32,116.89Z" transform="translate(-63.32 -61.27)"/><path class="cls-4" d="M778,174.59a3,3,0,0,1-3-3V116a3,3,0,0,1,3-3,2.92,2.92,0,0,1,2.88,3v55.63A2.92,2.92,0,0,1,778,174.59Z" transform="translate(-63.32 -61.27)"/><path class="cls-4" d="M848.52,162.77c-5.77,7.84-14,12.26-23.62,12.26-17.4,0-30-14.69-30-31.19s12.62-31.1,30-31.1c8.2,0,15.33,3,20.47,8.56a2.59,2.59,0,0,1,.81,1.89,2.68,2.68,0,0,1-.72,1.8,2.41,2.41,0,0,1-1.8.81,2.86,2.86,0,0,1-1.8-.72c-4.78-4-9.65-7-16.95-7-14.61,0-24.07,12.35-24.07,25.78s9.47,25.87,24.07,25.87c9.38,0,14.79-4.42,19.65-10.37a2.56,2.56,0,0,1,2-.9,2.6,2.6,0,0,1,2.61,2.52A2.75,2.75,0,0,1,848.52,162.77Z" transform="translate(-63.32 -61.27)"/><path class="cls-4" d="M903,173.86H867a3,3,0,0,1-3-3V116.71a2.93,2.93,0,0,1,3-2.88h34.62a2.71,2.71,0,1,1,0,5.41H869.89v20.65h17.94a2.7,2.7,0,0,1,0,5.41H869.89v23.17H903a2.7,2.7,0,0,1,0,5.41Z" transform="translate(-63.32 -61.27)"/><path class="cls-4" d="M938.23,175c-7.12,0-18.66-2.88-24.07-9.11a3,3,0,0,1-.81-2,2.53,2.53,0,0,1,.63-1.71,2.69,2.69,0,0,1,1.89-.9,3.1,3.1,0,0,1,1.89.72,31.1,31.1,0,0,0,20.56,7.66c7.93,0,16.41-2.88,16.41-11.09,0-6.67-7.84-9.29-20.65-14-8.2-3-17.22-6.58-17.22-16.68,0-10.64,9.83-15.24,21.55-15.24,7.48,0,15.78,2.7,20.65,6.4a2.82,2.82,0,0,1,1.17,2.25,3,3,0,0,1-.45,1.44,2.78,2.78,0,0,1-2.16,1.17,3,3,0,0,1-1.53-.45c-5.41-3.43-10.64-5.5-17.67-5.5-8.29,0-15.69,3-15.69,9.92s8.2,9.56,19.47,13.52c10.64,3.7,18.48,7.66,18.48,16.86C960.68,169.63,950.4,175,938.23,175Z" transform="translate(-63.32 -61.27)"/><path class="cls-5" d="M308.44,220.8a1,1,0,0,1-.43.11,1.05,1.05,0,0,1-1-.65l-3-6.67h-12.3l-3,6.63a1.14,1.14,0,0,1-1,.69,1.12,1.12,0,0,1-.47-.11,1.11,1.11,0,0,1-.65-1,1.07,1.07,0,0,1,.07-.47L296.8,197a1.11,1.11,0,0,1,2.06,0L309,219.32a1.07,1.07,0,0,1,.07.47A1.11,1.11,0,0,1,308.44,220.8ZM297.84,200l-5.23,11.54H303Z" transform="translate(-63.32 -61.27)"/><path class="cls-5" d="M337,216.18a11.45,11.45,0,0,1-9.45,4.9c-7,0-12-5.88-12-12.47a12.19,12.19,0,0,1,12-12.44,10.82,10.82,0,0,1,8.18,3.43,1,1,0,0,1,.32.76,1.08,1.08,0,0,1-.29.72,1,1,0,0,1-.72.32,1.14,1.14,0,0,1-.72-.29,10,10,0,0,0-6.78-2.81c-5.84,0-9.63,4.94-9.63,10.31S321.75,219,327.59,219c3.75,0,5.91-1.77,7.86-4.15a1,1,0,0,1,.79-.36,1,1,0,0,1,1,1A1.1,1.1,0,0,1,337,216.18Z" transform="translate(-63.32 -61.27)"/><path class="cls-5" d="M366.32,216.18a11.45,11.45,0,0,1-9.45,4.9c-7,0-12-5.88-12-12.47a12.19,12.19,0,0,1,12-12.44,10.82,10.82,0,0,1,8.18,3.43,1,1,0,0,1,.32.76,1.08,1.08,0,0,1-.29.72,1,1,0,0,1-.72.32,1.14,1.14,0,0,1-.72-.29,10,10,0,0,0-6.78-2.81c-5.84,0-9.63,4.94-9.63,10.31S351,219,356.87,219c3.75,0,5.91-1.77,7.86-4.15a1,1,0,0,1,.79-.36,1,1,0,0,1,1,1A1.1,1.1,0,0,1,366.32,216.18Z" transform="translate(-63.32 -61.27)"/><path class="cls-5" d="M386.19,221.08a12.47,12.47,0,1,1,12-12.47C398.16,215.21,393.15,221.08,386.19,221.08Zm0-22.79c-5.81,0-9.7,4.9-9.7,10.31s3.89,10.35,9.7,10.35,9.63-4.94,9.63-10.35S392,198.3,386.19,198.3Z" transform="translate(-63.32 -61.27)"/><path class="cls-5" d="M416.19,221.08c-5.84,0-9.37-3.89-9.37-10V197.47a1.2,1.2,0,0,1,1.19-1.19,1.17,1.17,0,0,1,1.15,1.19v14.06c0,4.44,2.49,7.43,7,7.43s7-3,7-7.43V197.47a1.23,1.23,0,0,1,1.23-1.19,1.17,1.17,0,0,1,1.15,1.19V211.1C425.53,217.19,422,221.08,416.19,221.08Z" transform="translate(-63.32 -61.27)"/><path class="cls-5" d="M453.51,220.9a.9.9,0,0,1-.9-.43l-14.17-19.9v19.22a1.16,1.16,0,0,1-1.15,1.12,1.12,1.12,0,0,1-1.12-1.12V197.43a1.16,1.16,0,0,1,1.15-1.15,1.12,1.12,0,0,1,.9.47s11.54,16.51,14.13,19.87V197.43a1.15,1.15,0,0,1,1.12-1.15,1.19,1.19,0,0,1,1.15,1.15v22.35A1.15,1.15,0,0,1,453.51,220.9Z" transform="translate(-63.32 -61.27)"/><path class="cls-5" d="M481.35,198.77h-7.57v20.95a1.19,1.19,0,1,1-2.38,0V198.77h-7.57a1.08,1.08,0,0,1,0-2.16h17.52a1.08,1.08,0,1,1,0,2.16Z" transform="translate(-63.32 -61.27)"/><path class="cls-5" d="M509.76,220.8a1,1,0,0,1-.43.11,1.05,1.05,0,0,1-1-.65l-3-6.67H493l-3,6.63a1.14,1.14,0,0,1-1,.69,1.12,1.12,0,0,1-.47-.11,1.11,1.11,0,0,1-.65-1,1.07,1.07,0,0,1,.07-.47L498.12,197a1.11,1.11,0,0,1,2.06,0l10.17,22.36a1.06,1.06,0,0,1,.07.47A1.11,1.11,0,0,1,509.76,220.8ZM499.16,200l-5.23,11.54h10.42Z" transform="translate(-63.32 -61.27)"/><path class="cls-5" d="M528.95,220.62h-8.87a1.2,1.2,0,0,1-1.19-1.19V197.76a1.17,1.17,0,0,1,1.19-1.15h8c4.15,0,7,2.49,7,5.95a5.73,5.73,0,0,1-3.28,5.16,6.45,6.45,0,0,1,4.83,6.09C536.59,217.44,533.92,220.62,528.95,220.62Zm-.54-21.89h-7.14v8.18h7.14a4.1,4.1,0,1,0,0-8.18ZM529.7,209h-8.44v9.45h8.44c2.81,0,4.54-1.88,4.54-4.72A4.52,4.52,0,0,0,529.7,209Z" transform="translate(-63.32 -61.27)"/><path class="cls-5" d="M546.44,220.9a1.2,1.2,0,0,1-1.19-1.19V197.47a1.2,1.2,0,0,1,1.19-1.19,1.17,1.17,0,0,1,1.15,1.19v22.25A1.17,1.17,0,0,1,546.44,220.9Z" transform="translate(-63.32 -61.27)"/><path class="cls-5" d="M573.84,220.62H560a1.2,1.2,0,0,1-1.19-1.19v-22a1.19,1.19,0,0,1,2.38,0v21h12.69a1,1,0,0,1,1.08,1A1.09,1.09,0,0,1,573.84,220.62Z" transform="translate(-63.32 -61.27)"/><path class="cls-5" d="M584.66,220.9a1.2,1.2,0,0,1-1.19-1.19V197.47a1.2,1.2,0,0,1,1.19-1.19,1.17,1.17,0,0,1,1.15,1.19v22.25A1.17,1.17,0,0,1,584.66,220.9Z" transform="translate(-63.32 -61.27)"/><path class="cls-5" d="M612.53,198.77H605v20.95a1.19,1.19,0,1,1-2.38,0V198.77H595a1.08,1.08,0,0,1,0-2.16h17.52a1.08,1.08,0,1,1,0,2.16Z" transform="translate(-63.32 -61.27)"/><path class="cls-5" d="M637.85,198l-8.26,11.18v10.53a1.23,1.23,0,0,1-1.23,1.19,1.17,1.17,0,0,1-1.15-1.19V209.19L618.92,198a1.08,1.08,0,0,1-.22-.65,1,1,0,0,1,.43-.87,1.08,1.08,0,0,1,1.51.22l7.72,10.53,7.75-10.53a1.07,1.07,0,0,1,.87-.43,1.14,1.14,0,0,1,.69.25,1.07,1.07,0,0,1,.18,1.48Z" transform="translate(-63.32 -61.27)"/><path class="cls-5" d="M661.07,220.9a1.2,1.2,0,0,1-1.19-1.19V197.47a1.2,1.2,0,0,1,1.19-1.19,1.17,1.17,0,0,1,1.15,1.19v22.25A1.17,1.17,0,0,1,661.07,220.9Z" transform="translate(-63.32 -61.27)"/><path class="cls-5" d="M690.75,220.9a.9.9,0,0,1-.9-.43l-14.17-19.9v19.22a1.16,1.16,0,0,1-1.15,1.12,1.12,1.12,0,0,1-1.12-1.12V197.43a1.16,1.16,0,0,1,1.15-1.15,1.12,1.12,0,0,1,.9.47s11.54,16.51,14.13,19.87V197.43a1.16,1.16,0,0,1,1.12-1.15,1.19,1.19,0,0,1,1.15,1.15v22.35A1.15,1.15,0,0,1,690.75,220.9Z" transform="translate(-63.32 -61.27)"/><path class="cls-5" d="M735.93,220.8a1,1,0,0,1-.43.11,1.05,1.05,0,0,1-1-.65l-3-6.67H719.16l-3,6.63a1.15,1.15,0,0,1-1,.69,1.13,1.13,0,0,1-.47-.11,1.11,1.11,0,0,1-.65-1,1.06,1.06,0,0,1,.07-.47L724.28,197a1.11,1.11,0,0,1,2.06,0l10.17,22.36a1.06,1.06,0,0,1,.07.47A1.11,1.11,0,0,1,735.93,220.8ZM725.33,200l-5.23,11.54h10.42Z" transform="translate(-63.32 -61.27)"/><path class="cls-5" d="M764.52,216.18a11.45,11.45,0,0,1-9.45,4.9c-7,0-12-5.88-12-12.47a12.19,12.19,0,0,1,12-12.44,10.82,10.82,0,0,1,8.18,3.43,1,1,0,0,1,.32.76,1.07,1.07,0,0,1-.29.72,1,1,0,0,1-.72.32,1.14,1.14,0,0,1-.72-.29,10,10,0,0,0-6.78-2.81c-5.84,0-9.63,4.94-9.63,10.31S749.24,219,755.08,219c3.75,0,5.91-1.77,7.86-4.15a1,1,0,0,1,.79-.36,1,1,0,0,1,1,1A1.11,1.11,0,0,1,764.52,216.18Z" transform="translate(-63.32 -61.27)"/><path class="cls-5" d="M789.87,198.77H782.3v20.95a1.19,1.19,0,1,1-2.38,0V198.77h-7.57a1.08,1.08,0,0,1,0-2.16h17.52a1.08,1.08,0,1,1,0,2.16Z" transform="translate(-63.32 -61.27)"/><path class="cls-5" d="M800.3,220.9a1.2,1.2,0,0,1-1.19-1.19V197.47a1.2,1.2,0,0,1,1.19-1.19,1.17,1.17,0,0,1,1.15,1.19v22.25A1.17,1.17,0,0,1,800.3,220.9Z" transform="translate(-63.32 -61.27)"/><path class="cls-5" d="M822.69,221.08a12.47,12.47,0,1,1,12-12.47C834.66,215.21,829.65,221.08,822.69,221.08Zm0-22.79c-5.8,0-9.7,4.9-9.7,10.31s3.89,10.35,9.7,10.35,9.63-4.94,9.63-10.35S828.49,198.3,822.69,198.3Z" transform="translate(-63.32 -61.27)"/><path class="cls-5" d="M861.2,220.9a.9.9,0,0,1-.9-.43l-14.17-19.9v19.22A1.16,1.16,0,0,1,845,220.9a1.12,1.12,0,0,1-1.12-1.12V197.43a1.16,1.16,0,0,1,1.15-1.15,1.12,1.12,0,0,1,.9.47s11.54,16.51,14.13,19.87V197.43a1.16,1.16,0,0,1,1.12-1.15,1.19,1.19,0,0,1,1.15,1.15v22.35A1.15,1.15,0,0,1,861.2,220.9Z" transform="translate(-63.32 -61.27)"/></svg>