<svg id="Icon" xmlns="http://www.w3.org/2000/svg" viewBox="0 0 311.28 365.43"><defs><style>.cls-1{fill:#121212;}</style></defs><title>icon</title><path class="cls-1" d="M390.59,147.78C352,123,272.45,73.29,256,73.29c-21.89,0-155.64,88.13-155.64,88.13,0,38.12,2.66,67.21,7.8,91.62,24.87-16.16,103.1-66.35,136-79.7C260.58,166.35,325.11,143.87,390.59,147.78Z" transform="translate(-100.36 -73.29)"/><path class="cls-1" d="M390.59,276.71C352.06,252,272.46,202.23,256,202.23c-17.34,0-104.79,55.26-140.44,78.25,6.08,18.19,13.93,34.22,23.48,50.75a236.82,236.82,0,0,0,14.4,22c31.73-19.74,69.72-42.3,90.37-50.76C259.56,295.64,324.58,272.78,390.59,276.71Z" transform="translate(-100.36 -73.29)"/><path class="cls-1" d="M279.31,178.54c37,18.13,102.21,60,124.54,74.5,5.13-24.41,7.79-53.5,7.79-91.62,0,0-7.6-5-19.39-12.57-48,4.68-89,19.13-101.55,24.49C287.36,174.68,283.46,176.5,279.31,178.54Z" transform="translate(-100.36 -73.29)"/><path class="cls-1" d="M279.27,307.48c21.51,10.54,52.6,29.12,79.29,45.71a238.82,238.82,0,0,0,14.39-22c9.55-16.53,17.4-32.57,23.48-50.75l-4.19-2.69c-48.47,4.73-89.79,19.42-101.91,24.64C287.06,303.76,283.32,305.49,279.27,307.48Z" transform="translate(-100.36 -73.29)"/><path class="cls-1" d="M256,331.17c-10.84,0-49.13,21.63-85,43.46,35.39,38.78,74.6,59,85,64.08h0c10.41-5.05,49.63-25.31,85-64.08C305.14,352.8,266.84,331.17,256,331.17Zm16.91,73.52L256,395.8l-16.92,8.89,3.23-18.84L228.62,372.5l18.91-2.75L256,352.63l8.46,17.13,18.91,2.75-13.69,13.35Z" transform="translate(-100.36 -73.29)"/></svg>